<?xml version="1.0" encoding="UTF-8" standalone="no"?>
<svg
   xmlns:dc="http://purl.org/dc/elements/1.1/"
   xmlns:cc="http://creativecommons.org/ns#"
   xmlns:rdf="http://www.w3.org/1999/02/22-rdf-syntax-ns#"
   xmlns:svg="http://www.w3.org/2000/svg"
   xmlns="http://www.w3.org/2000/svg"
   xmlns:xlink="http://www.w3.org/1999/xlink"
   xmlns:sodipodi="http://sodipodi.sourceforge.net/DTD/sodipodi-0.dtd"
   xmlns:inkscape="http://www.inkscape.org/namespaces/inkscape"
   width="246.53551"
   height="248.41747"
   viewBox="0 0 65.229185 65.727123"
   version="1.1"
   id="svg8"
   inkscape:version="1.0 (4035a4fb49, 2020-05-01)"
   sodipodi:docname="Arrows.svg">
  <defs
     id="defs2">
    <linearGradient
       id="linearGradient893"
       inkscape:collect="always">
      <stop
         id="stop889"
         offset="0"
         style="stop-color:#ffff00;stop-opacity:1;" />
      <stop
         id="stop891"
         offset="1"
         style="stop-color:#ffff00;stop-opacity:0;" />
    </linearGradient>
    <marker
       inkscape:stockid="Arrow2Lstart"
       orient="auto"
       refY="0"
       refX="0"
       id="marker1498"
       style="overflow:visible"
       inkscape:isstock="true">
      <path
         id="path1496"
         style="fill:#000000;fill-opacity:1;fill-rule:evenodd;stroke:#000000;stroke-width:0.625;stroke-linejoin:round;stroke-opacity:1"
         d="M 8.7185878,4.0337352 -2.2072895,0.01601326 8.7185884,-4.0017078 c -1.7454984,2.3720609 -1.7354408,5.6174519 -6e-7,8.035443 z"
         transform="matrix(1.1,0,0,1.1,1.1,0)" />
    </marker>
    <marker
       inkscape:stockid="Arrow2Lstart"
       orient="auto"
       refY="0"
       refX="0"
       id="marker1436"
       style="overflow:visible"
       inkscape:isstock="true">
      <path
         id="path1434"
         style="fill:#000000;fill-opacity:1;fill-rule:evenodd;stroke:#000000;stroke-width:0.625;stroke-linejoin:round;stroke-opacity:1"
         d="M 8.7185878,4.0337352 -2.2072895,0.01601326 8.7185884,-4.0017078 c -1.7454984,2.3720609 -1.7354408,5.6174519 -6e-7,8.035443 z"
         transform="matrix(1.1,0,0,1.1,1.1,0)" />
    </marker>
    <marker
       inkscape:stockid="Arrow2Lstart"
       orient="auto"
       refY="0"
       refX="0"
       id="Arrow2Lstart"
       style="overflow:visible"
       inkscape:isstock="true">
      <path
         id="path853"
         style="fill:#000000;fill-opacity:1;fill-rule:evenodd;stroke:#000000;stroke-width:0.625;stroke-linejoin:round;stroke-opacity:1"
         d="M 8.7185878,4.0337352 -2.2072895,0.01601326 8.7185884,-4.0017078 c -1.7454984,2.3720609 -1.7354408,5.6174519 -6e-7,8.035443 z"
         transform="matrix(1.1,0,0,1.1,1.1,0)" />
    </marker>
    <marker
       inkscape:stockid="Arrow1Lstart"
       orient="auto"
       refY="0"
       refX="0"
       id="Arrow1Lstart"
       style="overflow:visible"
       inkscape:isstock="true">
      <path
         id="path835"
         d="M 0,0 5,-5 -12.5,0 5,5 Z"
         style="fill:#000000;fill-opacity:1;fill-rule:evenodd;stroke:#000000;stroke-width:1pt;stroke-opacity:1"
         transform="matrix(0.8,0,0,0.8,10,0)" />
    </marker>
    <radialGradient
       gradientTransform="matrix(1.9164717,-1.0146661,0.23423874,0.44242332,-54.639284,98.348313)"
       gradientUnits="userSpaceOnUse"
       r="29.434856"
       fy="126.92688"
       fx="27.178246"
       cy="126.92688"
       cx="27.178246"
       id="radialGradient897"
       xlink:href="#linearGradient893"
       inkscape:collect="always" />
  </defs>
  <sodipodi:namedview
     id="base"
     pagecolor="#ffffff"
     bordercolor="#666666"
     borderopacity="1.0"
     inkscape:pageopacity="0.0"
     inkscape:pageshadow="2"
     inkscape:zoom="3.7573083"
     inkscape:cx="163.1033"
     inkscape:cy="136.78722"
     inkscape:document-units="mm"
     inkscape:current-layer="layer1"
     inkscape:document-rotation="0"
     showgrid="false"
     inkscape:window-width="1920"
     inkscape:window-height="1017"
     inkscape:window-x="-8"
     inkscape:window-y="32"
     inkscape:window-maximized="1"
     fit-margin-top="0"
     fit-margin-left="0"
     fit-margin-right="0"
     fit-margin-bottom="0"
     lock-margins="false"
     units="px" />
  <metadata
     id="metadata5">
    <rdf:RDF>
      <cc:Work
         rdf:about="">
        <dc:format>image/svg+xml</dc:format>
        <dc:type
           rdf:resource="http://purl.org/dc/dcmitype/StillImage" />
        <dc:title />
      </cc:Work>
    </rdf:RDF>
  </metadata>
  <g
     inkscape:label="Layer 1"
     inkscape:groupmode="layer"
     id="layer1"
     transform="translate(5.436348,-94.063324)">
    <circle
       r="29.434856"
       style="fill:url(#radialGradient897);fill-opacity:1;stroke:none;stroke-width:1.55198;stroke-miterlimit:4;stroke-dasharray:none;stroke-opacity:1"
       id="path1834"
       cx="27.178246"
       cy="126.92688" />
    <g
       id="g1832"
       transform="matrix(1.3961776,0,0,1.5706424,-23.557411,-84.173255)">
      <g
         style="fill:#0000ff"
         id="g1805">
        <path
           style="fill:#0000ff;stroke:#000080;stroke-width:1.5;stroke-miterlimit:4;stroke-dasharray:none;stroke-opacity:1"
           id="path1753"
           d="m 19.340884,132.99401 c 0.140763,-1.34274 0.721361,-2.59402 1.287562,-3.80249 0.554824,-1.09762 1.159996,-2.18742 1.974745,-3.11759 0.418681,-0.47799 0.673824,-0.67629 1.147519,-1.09425 0.543887,-0.39603 0.732398,-0.55813 1.324209,-0.88809 0.02403,-0.0134 -0.07322,0.0774 -0.04758,0.0674 0.296959,-0.11548 0.578113,-0.2687 0.873331,-0.38856 0.839721,-0.34095 1.238411,-0.44274 2.131473,-0.72124 1.849518,-0.53524 3.749933,-0.8878 5.668713,-1.04783 0.316045,-0.0264 0.633011,-0.0402 0.949517,-0.0603 0.852166,-0.005 1.728629,-0.0111 2.560022,0.21221 0.635815,0.17075 1.325479,0.46919 1.911242,0.76455 0.290933,0.14669 0.569696,0.31638 0.854544,0.47457 0.937265,0.60418 1.770657,1.35262 2.466533,2.22368 0.290009,0.36301 0.357539,0.48567 0.595302,0.8543 0.341831,0.51495 0.538337,1.09726 0.72903,1.67925 0.09047,0.26211 0.161271,0.5303 0.235752,0.7972 0,0 0.886129,-0.48319 0.886129,-0.48319 v 0 c -0.07873,-0.26634 -0.153945,-0.53386 -0.243991,-0.79669 -0.191635,-0.59277 -0.391411,-1.18239 -0.768429,-1.68897 -0.0903,-0.12601 -0.176888,-0.25477 -0.270902,-0.37804 -0.804767,-1.05515 -1.775494,-1.96992 -2.894317,-2.68698 -0.7855,-0.43027 -0.971822,-0.55718 -1.808202,-0.91204 -0.312893,-0.13276 -0.625409,-0.27093 -0.951756,-0.36592 -0.269155,-0.0784 -0.549132,-0.11596 -0.827146,-0.15187 -0.692263,-0.0894 -1.062708,-0.0658 -1.763632,-0.0652 -0.320861,0.0219 -0.642207,0.0377 -0.962583,0.0658 -1.929769,0.16957 -3.840264,0.52709 -5.704157,1.05417 -0.933021,0.27682 -1.226439,0.34004 -2.099773,0.68366 -0.97322,0.38291 -1.345666,0.61208 -2.366937,1.19865 -0.23429,0.13456 -0.463353,0.27862 -0.686381,0.43113 -0.217969,0.14904 -0.423721,0.31521 -0.635582,0.47282 -0.480316,0.43193 -0.71169,0.61124 -1.132681,1.10576 -0.80051,0.94034 -1.387687,2.03799 -1.95103,3.12914 -0.585174,1.24906 -1.169469,2.52842 -1.404278,3.89783 0,0 0.923736,-0.46295 0.923736,-0.46295 z" />
        <path
           style="fill:#0000ff;stroke:#000080;stroke-width:1.5;stroke-miterlimit:4;stroke-dasharray:none;stroke-opacity:1"
           id="path1755"
           d="m 43.921058,129.02212 c 0.02543,-0.46002 0.03398,-0.91846 -0.0332,-1.37504 -0.01683,-0.0705 -0.07228,-0.3283 -0.111559,-0.39913 -0.156549,-0.2823 -0.553495,-0.62121 -0.796065,-0.83907 -0.420593,-0.35073 -0.888289,-0.6495 -1.39186,-0.86721 -0.109185,-0.0472 -0.222046,-0.0854 -0.333068,-0.12812 -0.412226,-0.12994 -0.82686,-0.2577 -1.253963,-0.32933 -0.292198,-0.049 -0.369168,-0.0493 -0.671462,-0.0754 -0.896171,-0.0459 -1.794325,-0.0434 -2.691496,-0.0456 -0.557209,-0.003 -1.114927,-0.0103 -1.670211,0.0452 -0.377963,0.0378 -0.446038,0.0568 -0.817388,0.12224 -0.953409,0.21199 -1.848823,0.61572 -2.750142,0.98173 0,0 -0.769797,0.60652 -0.769797,0.60652 v 0 c 0.895546,-0.37256 1.78748,-0.77737 2.73598,-0.9967 0.133434,-0.0253 0.266196,-0.0545 0.400302,-0.076 0.688889,-0.11044 1.386802,-0.11672 2.082642,-0.11017 0.890822,-2.2e-4 1.78267,-0.007 2.672196,0.0491 0.279363,0.0242 0.387898,0.0286 0.660025,0.0713 0.425296,0.0667 0.838184,0.18861 1.250116,0.31085 0.109054,0.0406 0.219985,0.0765 0.32716,0.12185 0.497208,0.21036 0.954133,0.50466 1.368695,0.84865 0.249409,0.22156 0.596151,0.50506 0.753689,0.80277 0.0402,0.076 0.09166,0.3024 0.111075,0.37937 0.06789,0.45342 0.05491,0.91107 -0.0038,1.36549 0,0 0.932098,-0.46328 0.932098,-0.46328 z" />
        <path
           style="fill:#0000ff;stroke:#000080;stroke-width:1.5;stroke-miterlimit:4;stroke-dasharray:none;stroke-opacity:1"
           id="path1757"
           d="m 45.672843,128.40793 c -0.01773,-0.44131 -0.01627,-0.88312 -0.01955,-1.3247 0.01058,-0.68943 -0.01154,-1.37644 -0.05892,-2.06404 -0.06916,-0.73236 -0.13711,-1.466 -0.23976,-2.19457 -0.07658,-0.55831 -0.163627,-1.1153 -0.216255,-1.67653 -0.03792,-0.35482 -0.0533,-0.67722 0.128167,-0.99952 0.03439,-0.0611 0.07959,-0.11539 0.119385,-0.17309 0.04551,-0.0536 0.08855,-0.10933 0.136528,-0.16069 0.07829,-0.0838 0.223194,-0.21502 0.312849,-0.28379 0.06401,-0.0491 0.269867,-0.17609 0.198474,-0.13852 -0.193019,0.10158 -0.381405,0.2124 -0.564396,0.3311 -0.105502,0.0684 0.221009,-0.12003 0.331515,-0.18005 0.286128,-0.15712 0.575194,-0.30877 0.863058,-0.46267 0,0 0.782502,-0.62994 0.782502,-0.62994 v 0 c -0.291364,0.15867 -0.584859,0.3133 -0.875607,0.47311 -0.757459,0.4008 -1.597562,0.75216 -2.116058,1.46107 -0.03719,0.0629 -0.07971,0.12299 -0.111585,0.18877 -0.164849,0.34021 -0.150349,0.6795 -0.104008,1.04414 0.06342,0.55876 0.156411,1.11331 0.23758,1.66968 0.104709,0.72552 0.173712,1.45623 0.239117,2.18618 0.04025,0.68766 0.06407,1.37505 0.04495,2.06409 -0.0033,0.44823 -0.0021,0.89667 -0.01955,1.34464 0,0 0.931598,-0.47467 0.931598,-0.47467 z" />
      </g>
      <g
         id="g1810">
        <path
           style="fill:#008080;stroke:#fb0000;stroke-width:1.5;stroke-miterlimit:4;stroke-dasharray:none;stroke-opacity:1"
           id="path1759"
           d="m 52.997552,127.50488 c -0.487947,1.63322 -1.199608,3.18977 -1.908035,4.7365 -0.161105,0.33946 -0.320045,0.67995 -0.483314,1.01838 -0.404717,0.83889 -0.584888,1.20969 -1.03959,2.02658 -0.248018,0.44557 -0.828289,1.42864 -1.104554,1.86954 -0.176694,0.28199 -0.363297,0.55764 -0.544946,0.83646 -0.91471,1.39569 -2.004338,2.67004 -3.274343,3.75518 -0.265838,0.22714 -0.546741,0.43604 -0.820111,0.65406 -0.4655,0.33025 -1.115642,0.81598 -1.627759,1.08648 -0.02312,0.0122 -0.04121,-0.0487 -0.0664,-0.0417 -0.295171,0.0819 -0.573995,0.21588 -0.868275,0.30089 -0.795324,0.22976 -1.104344,0.2421 -1.933948,0.35882 -1.140282,0.11238 -2.283872,0.0316 -3.419026,-0.0913 -0.664464,-0.072 -1.451332,-0.17585 -2.110136,-0.31384 -0.305094,-0.0639 -0.605047,-0.15027 -0.90757,-0.22541 -1.312002,-0.46003 -2.555625,-1.13091 -3.612146,-2.0405 -0.148787,-0.1281 -0.2876,-0.26734 -0.4314,-0.40101 -0.377408,-0.35771 -0.679292,-0.78023 -0.984244,-1.19811 0,0 -0.832512,0.49335 -0.832512,0.49335 v 0 c 0.314743,0.41927 0.623345,0.84617 1.010458,1.20386 0.148524,0.1335 0.291709,0.27318 0.445572,0.40049 1.087126,0.8995 2.360843,1.55102 3.676053,2.04476 0.30765,0.0742 0.612649,0.16035 0.922949,0.22251 0.635502,0.12729 1.500305,0.23306 2.136884,0.30259 1.130952,0.12352 2.269289,0.22249 3.407092,0.12415 0.83443,-0.10636 1.128591,-0.11232 1.930339,-0.33451 0.296116,-0.0821 0.594828,-0.16447 0.874286,-0.29224 1.137571,-0.52007 2.198855,-1.16684 3.192788,-1.92157 0.273035,-0.21997 0.553488,-0.43105 0.819105,-0.65992 1.269749,-1.0941 2.363687,-2.37305 3.273867,-3.77908 0.177893,-0.27822 0.360458,-0.55351 0.533678,-0.83467 0.578514,-0.939 1.129022,-1.90259 1.632199,-2.88407 0.171685,-0.33489 0.332684,-0.67516 0.496326,-1.01405 0.163907,-0.33945 0.324205,-0.68062 0.486307,-1.02093 0.732301,-1.58426 1.450459,-3.17771 2.050188,-4.81786 0,0 -0.919782,0.43623 -0.919782,0.43623 z" />
        <path
           style="fill:#008080;stroke:#fb0000;stroke-width:1.5;stroke-miterlimit:4;stroke-dasharray:none;stroke-opacity:1"
           id="path1761"
           d="m 27.033422,139.44795 c 0.495082,0.22415 0.981495,0.46672 1.475972,0.69214 0.649603,0.28104 1.280967,0.2018 1.963613,0.12722 0.869144,-0.11088 1.704941,-0.38255 2.531105,-0.66363 1.01643,-0.33808 1.978958,-0.82894 2.848949,-1.45635 0.270536,-0.22313 0.427783,-0.44175 0.583139,-0.74983 0,0 -0.930098,0.41871 -0.930098,0.41871 v 0 c -0.148925,0.27358 -0.333204,0.5101 -0.585448,0.69894 -0.315351,0.2188 -0.554779,0.37358 0.326549,-0.15103 0.103038,-0.0613 -0.210079,0.11583 -0.317408,0.1693 -0.25146,0.12527 -0.479028,0.2226 -0.741891,0.32332 -0.138371,0.053 -0.278741,0.10067 -0.418112,0.15101 -0.819226,0.28339 -1.650158,0.54936 -2.510536,0.67489 -0.652073,0.0739 -1.285582,0.15291 -1.911408,-0.10023 -0.495334,-0.20947 -0.979866,-0.44462 -1.447233,-0.7107 0,0 -0.867193,0.57624 -0.867193,0.57624 z" />
        <path
           style="fill:#008080;stroke:#fb0000;stroke-width:1.5;stroke-miterlimit:4;stroke-dasharray:none;stroke-opacity:1"
           id="path1765"
           d="m 26.211057,139.86797 c 0.479875,0.55549 0.893285,1.16554 1.324467,1.75885 0.458119,0.644 0.931105,1.2783 1.36133,1.9417 0.282118,0.43503 0.348463,0.56154 0.605093,1.00365 0.472123,0.81769 0.775424,1.70858 1.026021,2.61404 0.208314,0.77129 0.341676,1.55821 0.402376,2.35411 0.0044,0.0907 0.0089,0.18133 0.01334,0.272 0,0 0.894166,-0.46292 0.894166,-0.46292 v 0 c -0.0073,-0.09 -0.01454,-0.18006 -0.02182,-0.27009 -0.02358,-0.24134 -0.03876,-0.42439 -0.07409,-0.6665 -0.08317,-0.56986 -0.231929,-1.12785 -0.364991,-1.68732 -0.0412,-0.16178 -0.07752,-0.32488 -0.123597,-0.48533 -0.215795,-0.75139 -0.54167,-1.4662 -0.926875,-2.14487 -0.306008,-0.51454 -0.617836,-1.02415 -0.954176,-1.51969 -0.207809,-0.30617 -0.46181,-0.65225 -0.676068,-0.95374 -0.113535,-0.15975 -0.225823,-0.32039 -0.338734,-0.48058 -0.425182,-0.59838 -0.824277,-1.2139 -1.251112,-1.81087 0,0 -0.895334,0.53756 -0.895334,0.53756 z" />
      </g>
      <g
         style="fill:#808000"
         id="g1800">
        <path
           style="fill:#808000;stroke:#808000;stroke-width:0.770086;stroke-miterlimit:4;stroke-dasharray:none;stroke-opacity:1"
           id="path1767"
           d="m 27.573807,128.18106 c -0.03381,-0.007 -0.06721,-0.0169 -0.101444,-0.022 -0.147021,-0.0216 -0.334798,-0.0323 -0.477905,-0.0403 -0.322483,-0.0181 -0.645424,-0.0301 -0.968109,-0.044 -0.206392,-1.3e-4 -0.918314,-0.16838 -1.118479,-0.10278 -0.210285,0.0691 -0.68276,0.40614 -0.712467,0.42957 -0.04846,0.0383 -0.0645,0.10567 -0.09674,0.15849 -0.02204,0.0714 -0.05411,0.14037 -0.0661,0.21413 -0.08131,0.50013 0.145397,1.07233 0.367773,1.50578 0.08849,0.17246 0.690763,0.48555 0.787178,0.65364 0.274875,0.45188 0.561532,0.89623 0.842918,1.34397 0.114094,0.18154 0.250899,0.39375 0.357455,0.58311 0.04014,0.0714 0.07605,0.14503 0.114078,0.21755 0.08401,0.19586 0.152611,0.42205 0.02866,0.61811 -0.07448,0.11782 -0.114635,0.12375 -0.232895,0.19948 0.07745,-0.0545 0.268911,-0.0759 0.232357,-0.16364 -0.03588,-0.0862 -0.175478,0.0613 -0.265313,0.0845 -0.11815,0.0305 -0.23781,0.0553 -0.35793,0.0767 -0.428462,0.0763 -0.861781,0.10776 -1.295036,0.14006 -0.608602,0.0399 -1.218581,0.0465 -1.828224,0.0514 l -0.375606,0.27575 v 0 c 0.611275,-0.0108 1.222634,-0.0223 1.833369,-0.0518 0.429996,-0.031 0.860314,-0.0615 1.286925,-0.12678 0.112738,-0.0174 0.482951,-0.0794 0.609159,-0.1372 0.217445,-0.0997 0.422675,-0.22465 0.634012,-0.33698 0.115706,-0.0884 0.160004,-0.10015 0.226163,-0.22948 0.109821,-0.21468 0.03132,-0.44797 -0.06608,-0.64924 -0.04153,-0.0715 -0.08094,-0.14429 -0.124572,-0.21451 -0.104616,-0.16833 -0.274974,-0.41194 -0.381933,-0.56975 -0.296214,-0.43702 -1.090285,-1.024 -1.358008,-1.47966 -0.0911,-0.16942 -0.18978,-0.33493 -0.273302,-0.50829 -0.212188,-0.4404 -0.419717,-0.9981 -0.308195,-1.49656 0.01598,-0.0714 0.05186,-0.13676 0.07778,-0.20515 0.18138,-0.25107 0.142978,-0.14984 -0.204034,0.005 -0.04999,0.0224 0.09394,-0.0575 0.144812,-0.0778 0.200346,-0.0797 0.420004,-0.0669 0.630411,-0.0715 0.321388,0.009 1.140622,0.16858 1.46127,0.19408 0.142496,0.0113 0.303953,0.0265 0.446989,0.0529 0.02993,0.005 0.05897,0.0151 0.08847,0.0226 l 0.442576,-0.30022 z"
           sodipodi:nodetypes="ccccccccccsccccccccccsccccsccccccccccccccc" />
        <path
           style="fill:#808000;stroke:#808000;stroke-width:0.741825;stroke-miterlimit:4;stroke-dasharray:none;stroke-opacity:1"
           id="path1769"
           d="m 26.718233,127.13506 c -0.364873,0.46036 -0.696599,0.9484 -0.998859,1.45208 -0.09644,0.1607 -0.187113,0.32478 -0.28067,0.48718 -0.09143,0.17275 -0.185221,0.34427 -0.274297,0.51825 -0.09261,0.18089 -0.184832,0.36207 -0.270719,0.54625 -0.362279,0.77686 -0.656421,1.58341 -0.954979,2.38611 -0.239373,0.668 -0.458907,1.34282 -0.679155,2.01729 -0.06328,0.18604 -0.135947,0.36858 -0.201084,0.55396 0,0 0.455255,-0.21358 0.455255,-0.21358 v 0 c 0.05919,-0.18269 0.125717,-0.36287 0.182407,-0.54639 0.199231,-0.66501 0.395394,-1.33103 0.621026,-1.98778 0.211309,-0.5954 0.424331,-1.18955 0.674592,-1.77008 0.186385,-0.43236 0.336334,-0.74167 0.551719,-1.15608 0.0905,-0.17411 0.185821,-0.34568 0.278732,-0.51851 0.09595,-0.16286 0.188795,-0.3276 0.287857,-0.48859 0.320819,-0.52137 0.675057,-1.02492 1.080952,-1.48384 0,0 -0.472777,0.20373 -0.472777,0.20373 z" />
        <path
           style="fill:#808000;stroke:#808000;stroke-width:0.741825;stroke-miterlimit:4;stroke-dasharray:none;stroke-opacity:1"
           id="path1771"
           d="m 28.002805,126.84107 c -0.306411,0.77453 -0.638683,1.53876 -0.971242,2.30236 -0.597592,1.43967 -1.195439,2.87911 -1.817809,4.30829 -0.274419,0.63479 -0.547632,1.27072 -0.872694,1.88155 -0.09017,0.17852 -0.190446,0.35091 -0.295426,0.52099 -0.01774,0.0289 -0.03549,0.0578 -0.05323,0.0867 0,0 0.460889,-0.20365 0.460889,-0.20365 v 0 c 0.01783,-0.0289 0.03567,-0.0578 0.0535,-0.0867 0.104116,-0.16752 0.201314,-0.33837 0.281074,-0.51914 0.293306,-0.60455 0.541259,-1.22922 0.796732,-1.8504 0.592609,-1.44149 1.177456,-2.88687 1.818263,-4.30782 0.349847,-0.78295 0.691581,-1.57011 1.066329,-2.34153 0,0 -0.466384,0.20931 -0.466384,0.20931 z" />
      </g>
      <g
         id="g1790">
        <path
           style="fill:#008080;stroke:#008080;stroke-width:0.638257;stroke-miterlimit:4;stroke-dasharray:none;stroke-opacity:1"
           id="path1773"
           d="m 34.739736,129.40512 c 0.136509,0.6058 0.182177,1.22686 0.22743,1.84467 0.05781,0.88645 0.06912,1.77478 0.06541,2.6628 0,0 0.330659,-0.16902 0.330659,-0.16902 v 0 c -0.02706,-0.88631 -0.04018,-1.77302 -0.07694,-2.659 -0.03569,-0.62964 -0.0814,-1.25852 -0.153603,-1.88518 0,0 -0.392952,0.20573 -0.392952,0.20573 z" />
        <path
           style="fill:#008080;stroke:#008080;stroke-width:0.638257;stroke-miterlimit:4;stroke-dasharray:none;stroke-opacity:1"
           id="path1775"
           d="m 36.361739,128.98544 c 0.122129,-0.0849 0.339454,-0.25365 -0.219663,0.11952 -0.02226,0.0149 0.04959,-0.0209 0.07571,-0.0267 0.09507,-0.0212 0.126765,-0.0121 0.226432,-0.007 0.26887,0.0465 0.502945,0.19492 0.694564,0.3854 0.0334,0.0332 0.06313,0.0699 0.0947,0.10483 0.09131,0.1143 0.16372,0.24508 0.182009,0.3926 0.0043,0.0351 0.008,0.0711 0.0026,0.10603 -0.0053,0.0343 -0.0229,0.0655 -0.03435,0.0982 -0.09261,0.15319 -0.231728,0.26801 -0.375842,0.37078 -0.0406,0.0289 -0.169041,0.10525 -0.124358,0.0831 0.08039,-0.0398 0.15465,-0.091 0.231975,-0.13643 -0.280798,0.1394 -0.578395,0.24466 -0.876377,0.34111 -0.190688,0.0601 -0.383491,0.11298 -0.57156,0.18104 -0.09071,0.0331 -0.178766,0.0715 -0.264587,0.11558 0,0 -0.345,0.27475 -0.345,0.27475 v 0 c 0.100618,-0.0437 -0.01272,0.008 0.07985,-0.0416 0.05927,-0.0317 0.124594,-0.0496 0.184884,-0.079 0.192006,-0.0725 0.387583,-0.13304 0.58388,-0.19298 0.298737,-0.0952 0.59618,-0.20064 0.880453,-0.33315 0.279354,-0.1618 0.718367,-0.373 0.923408,-0.66105 0.0237,-0.0333 0.04103,-0.0707 0.06155,-0.10603 0.0093,-0.037 0.02432,-0.073 0.02798,-0.11092 0.0036,-0.0375 -10e-4,-0.0756 -0.0064,-0.11295 -0.0223,-0.15538 -0.09734,-0.29087 -0.198228,-0.40877 -0.03316,-0.0355 -0.06472,-0.0726 -0.09948,-0.10657 -0.197187,-0.19268 -0.433492,-0.34882 -0.704195,-0.41199 -0.09437,-0.0109 -0.137221,-0.0222 -0.229682,-0.0108 -0.02695,0.003 -0.05509,0.007 -0.0792,0.0191 -0.184276,0.0956 -0.371168,0.1889 -0.532074,0.32023 0,0 0.410977,-0.16654 0.410977,-0.16654 z" />
        <path
           style="fill:#008080;stroke:#008080;stroke-width:0.638257;stroke-miterlimit:4;stroke-dasharray:none;stroke-opacity:1"
           id="path1779"
           d="m 33.429406,133.20609 c 0.580865,-0.0312 1.162581,-0.0372 1.744087,-0.0477 0.567328,-0.0106 1.134695,-0.0171 1.702121,-0.0172 0,0 0.32929,-0.23999 0.32929,-0.23999 v 0 c -0.577946,0.0167 -1.155972,0.0296 -1.734058,0.0404 -0.560452,0.008 -1.121089,0.0114 -1.681518,0.003 0,0 -0.359922,0.26149 -0.359922,0.26149 z" />
      </g>
      <g
         id="g1795">
        <path
           style="fill:#0000ff;stroke:#fb0000;stroke-width:1.01559;stroke-miterlimit:4;stroke-dasharray:none;stroke-opacity:1"
           id="path1781"
           d="m 40.376775,131.34855 c 0.04676,0.0338 0.09554,0.0651 0.140268,0.1016 0.209356,0.17084 0.389181,0.34486 0.576767,0.54293 0.346728,0.36612 0.570799,0.63294 0.883734,1.03923 0.162013,0.21034 0.31533,0.42724 0.472996,0.64087 0.664733,0.93573 1.265685,1.91468 1.815607,2.92162 0,0 0.539438,-0.31118 0.539438,-0.31118 v 0 c -0.590935,-0.98605 -1.209617,-1.9556 -1.864227,-2.90075 -0.604865,-0.84354 -1.211158,-1.70081 -1.971748,-2.41391 0,0 -0.592835,0.37959 -0.592835,0.37959 z" />
        <path
           style="fill:#0000ff;stroke:#fb0000;stroke-width:1.01559;stroke-miterlimit:4;stroke-dasharray:none;stroke-opacity:1"
           id="path1783"
           d="m 47.560903,130.89491 c -0.439109,0.5891 -0.895365,1.16568 -1.322349,1.76381 -0.385135,0.5395 -0.762034,1.11045 -1.131047,1.66083 -0.804246,1.27152 -1.520716,2.59409 -2.228389,3.92063 -0.04947,0.0925 -0.09894,0.18507 -0.148409,0.2776 0,0 0.600843,-0.27112 0.600843,-0.27112 v 0 c 0.04416,-0.0901 0.08832,-0.18028 0.132477,-0.27042 0.648716,-1.32267 1.323044,-2.63456 2.13037,-3.86953 0.464888,-0.6916 0.658533,-0.99603 1.154195,-1.66763 0.462989,-0.62732 0.965172,-1.2231 1.455075,-1.82905 0,0 -0.642766,0.28488 -0.642766,0.28488 z" />
        <path
           style="fill:#0000ff;stroke:#fb0000;stroke-width:1.01559;stroke-miterlimit:4;stroke-dasharray:none;stroke-opacity:1"
           id="path1785"
           d="m 40.14317,138.19782 c 0.613687,-0.0173 1.227698,-0.0207 1.841581,-0.0169 0.16135,0.006 0.322861,0.008 0.484052,0.0175 0.166289,0.01 0.332109,0.026 0.49817,0.0389 0.641823,0.05 1.282751,0.10534 1.923687,0.16562 0,0 0.491882,-0.35081 0.491882,-0.35081 v 0 c -0.529064,-0.0435 -0.74106,-0.0589 -1.278418,-0.11171 -0.535236,-0.0526 -1.06982,-0.1235 -1.60855,-0.12975 -0.593496,-0.011 -1.187172,-0.0113 -1.780538,-0.0284 0,0 -0.571866,0.41548 -0.571866,0.41548 z" />
      </g>
    </g>
    <rect
       style="fill:none;stroke:none;stroke-width:19.5305;stroke-miterlimit:4;stroke-dasharray:none;stroke-opacity:1"
       id="rect1846"
       width="65.229187"
       height="65.727119"
       x="-5.436348"
       y="94.063324" />
  </g>
</svg>
